<?xml version="1.0" encoding="utf-8"?>
<!-- Generator: Adobe Illustrator 16.0.0, SVG Export Plug-In . SVG Version: 6.00 Build 0)  -->
<!DOCTYPE svg PUBLIC "-//W3C//DTD SVG 1.1//EN" "http://www.w3.org/Graphics/SVG/1.1/DTD/svg11.dtd">
<svg version="1.1" id="图层_1" xmlns="http://www.w3.org/2000/svg" xmlns:xlink="http://www.w3.org/1999/xlink" x="0px" y="0px"
	 width="40px" height="40px" viewBox="71.807 -0.019 40 40" enable-background="new 71.807 -0.019 40 40" xml:space="preserve">
<path opacity="0.2" fill="#DA2717" d="M85.882,4.935l-8.904,8.598L76.76,25.907l8.598,8.904l12.375,0.218l8.904-8.597l0.217-12.375
	L98.256,5.15L85.882,4.935z M105.665,14.591l-0.197,11.263c0,0.042-0.019,0.086-0.051,0.116l-8.104,7.823
	c-0.015,0.016-0.032,0.024-0.052,0.033c-0.021,0.009-0.042,0.015-0.065,0.013l-11.26-0.196c-0.044-0.001-0.085-0.021-0.116-0.051
	l-7.825-8.104c-0.029-0.031-0.046-0.073-0.046-0.116l0.197-11.263c0.001-0.043,0.02-0.085,0.05-0.115L86.3,6.17
	c0.031-0.03,0.073-0.045,0.117-0.046l11.261,0.198c0.045,0,0.086,0.018,0.116,0.049l7.825,8.104
	C105.648,14.506,105.666,14.548,105.665,14.591z"/>
<path opacity="0.7" fill="#DA2717" d="M86.478,6.452l-8.005,7.73L78.277,25.31l7.732,8.007l11.126,0.193l8.005-7.73l0.195-11.126
	l-7.731-8.006L86.478,6.452z M91.685,12.486l6.602-2.72c0.085-0.035,0.181,0.005,0.215,0.089c0.034,0.083-0.005,0.179-0.09,0.214
	l-6.602,2.72c-0.085,0.035-0.181-0.005-0.215-0.088C91.561,12.617,91.6,12.521,91.685,12.486z M93.543,18.315l-0.195-0.476
	l-4.145,1.708l0.195,0.475l-0.958,0.395l-0.541-1.313l2.562-1.055c-0.168-0.18-0.322-0.344-0.467-0.495l0.99-0.617
	c0.189,0.211,0.379,0.43,0.573,0.659l2.401-0.99l0.541,1.313L93.543,18.315z M93.991,18.331l0.342,0.833l-4.772,1.966l-0.343-0.832
	L93.991,18.331z M88.413,13.326l0.093-1.356l1.02,0.898l1.32-0.332l-0.538,1.248l0.724,1.152l-1.355-0.126l-0.872,1.044
	l-0.299-1.328l-1.263-0.507L88.413,13.326z M80.011,17.296l6.603-2.721c0.084-0.034,0.18,0.005,0.214,0.089
	c0.035,0.084-0.005,0.179-0.09,0.214l-6.602,2.72c-0.084,0.035-0.181-0.004-0.215-0.089C79.887,17.426,79.928,17.33,80.011,17.296z
	 M86.449,21.879l-0.573-1.392l-4.35,1.792l-0.372-0.904l5.333-2.197l1.318,3.2l-4.178,1.722l0.489,1.188
	c0.184,0.445,0.483,0.582,0.902,0.41l2.461-1.015c0.206-0.084,0.357-0.185,0.458-0.302c0.1-0.115,0.131-0.262,0.095-0.437
	c-0.037-0.178-0.137-0.556-0.297-1.135c0.456,0.007,0.846-0.004,1.166-0.034c0.116,0.574,0.196,1.013,0.24,1.318
	c0.045,0.307-0.022,0.574-0.203,0.809c-0.183,0.231-0.472,0.431-0.875,0.598l-2.865,1.18c-0.94,0.389-1.613,0.089-2.021-0.896
	l-1.165-2.826l0.978-0.402l0.265,0.641L86.449,21.879z M92.122,27.946l-6.604,2.719c-0.084,0.035-0.179-0.004-0.213-0.088
	c-0.035-0.082,0.005-0.179,0.088-0.214l6.603-2.721c0.085-0.034,0.181,0.006,0.216,0.09C92.246,27.815,92.206,27.911,92.122,27.946z
	 M96.415,28.002l-1.356-0.126l-0.871,1.043l-0.299-1.325l-1.263-0.508l1.171-0.693l0.093-1.357l1.02,0.898l1.32-0.331l-0.538,1.248
	L96.415,28.002z M94.465,23.041c-0.622,0.256-1.059,0.076-1.31-0.534l-0.462-1.123l-0.779,0.322c0.13,0.492,0.151,0.905,0.063,1.238
	c-0.117,0.503-0.527,1.099-1.231,1.79c-0.451-0.308-0.778-0.515-0.979-0.615c0.994-0.77,1.389-1.442,1.183-2.017l-1.609,0.664
	l-0.343-0.831l6.21-2.559l0.343,0.831l-1.899,0.783l0.375,0.911c0.082,0.199,0.213,0.26,0.398,0.184l0.384-0.158
	c0.237-0.098,0.308-0.303,0.217-0.615c-0.033-0.115-0.09-0.29-0.169-0.524c0.308-0.018,0.652-0.05,1.04-0.097
	c0.079,0.328,0.142,0.615,0.185,0.859c0.101,0.506-0.172,0.896-0.823,1.165L94.465,23.041z M103.794,23.136l-6.602,2.719
	c-0.084,0.035-0.18-0.005-0.214-0.088s0.005-0.179,0.09-0.214l6.602-2.72c0.084-0.035,0.181,0.006,0.214,0.088
	C103.918,23.005,103.879,23.101,103.794,23.136z M101.026,14.105l0.326,0.792l-1.893,0.78c0.304,0.676,0.596,1.25,0.875,1.722
	c0.104-0.567,0.163-1.158,0.173-1.775l0.969,0.041c-0.034,1.018-0.161,1.951-0.377,2.804c0.341,0.362,0.578,0.516,0.711,0.461
	c0.05-0.021,0.079-0.07,0.086-0.147s-0.023-0.253-0.088-0.522c-0.064-0.271-0.135-0.497-0.209-0.684
	c0.244,0.033,0.582,0.049,1.011,0.055c0.086,0.243,0.158,0.578,0.22,1.004c0.064,0.427,0.038,0.728-0.075,0.899
	c-0.115,0.174-0.252,0.294-0.412,0.36c-0.48,0.199-1.002,0.062-1.562-0.406c-0.176,0.473-0.382,0.917-0.623,1.336
	c-0.316-0.172-0.643-0.311-0.974-0.417c0.342-0.549,0.619-1.136,0.826-1.76c-0.432-0.594-0.917-1.461-1.453-2.599l-2.261,0.932
	l0.32,0.779l1.882-0.775c0.027,0.066,0.172,0.455,0.434,1.167c0.263,0.712,0.382,1.166,0.355,1.367
	c-0.027,0.197-0.092,0.378-0.195,0.54c-0.104,0.164-0.466,0.355-1.081,0.579c-0.198-0.354-0.382-0.655-0.555-0.898
	c0.227-0.046,0.398-0.095,0.52-0.145c0.234-0.096,0.321-0.267,0.257-0.515c-0.064-0.246-0.172-0.552-0.322-0.917l-0.965,0.397
	c0.558,1.368,0.765,2.479,0.619,3.335c-0.337-0.128-0.686-0.237-1.045-0.326c0.119-0.745-0.047-1.671-0.497-2.782L95.1,16.546
	l3.099-1.276l-0.479-1.076l0.938-0.387l0.459,1.085l0.901-0.372c-0.181-0.104-0.461-0.258-0.843-0.455l0.537-0.663
	c0.224,0.104,0.551,0.276,0.983,0.513l-0.395,0.488L101.026,14.105z"/>
<path opacity="0.5" fill="#DA2717" d="M108.783,8.685l-3.975-1.657l-1.642-3.98L98.861,3.04l-3.038-3.052l-3.981,1.64l-3.976-1.654
	l-3.051,3.038l-4.307-0.007L78.854,6.98l-3.981,1.64l-0.008,4.306l-3.05,3.041l1.64,3.979L71.8,23.922l3.039,3.051l-0.009,4.306
	l3.976,1.657l1.64,3.979l4.307,0.007l3.039,3.053l3.98-1.64l3.977,1.653l3.05-3.038l4.307,0.008l1.655-3.975l3.982-1.641
	l0.006-4.308l3.051-3.038l-1.639-3.982l1.653-3.975l-3.037-3.05L108.783,8.685z M107.513,13.933l-0.223,12.646
	c-0.001,0.089-0.038,0.17-0.1,0.231l-9.098,8.785c-0.031,0.028-0.066,0.051-0.104,0.066c-0.042,0.018-0.087,0.025-0.131,0.025
	l-12.647-0.221c-0.086-0.002-0.17-0.038-0.231-0.102l-8.785-9.101c-0.061-0.062-0.095-0.145-0.093-0.231l0.222-12.648
	c0.003-0.086,0.038-0.169,0.101-0.229l9.099-8.788c0.063-0.06,0.146-0.093,0.233-0.091l12.647,0.222c0.087,0,0.17,0.037,0.23,0.099
	l8.786,9.101C107.48,13.762,107.515,13.844,107.513,13.933z"/>
</svg>
